<?xml version="1.0" encoding="UTF-8"?> <svg xmlns="http://www.w3.org/2000/svg" width="101" height="101" viewBox="0 0 101 101" fill="none"> <path d="M64.7 35.835L33.309 60.822C32.661 61.338 32.554 62.282 33.069 62.93C33.365 63.302 33.802 63.496 34.244 63.496C34.571 63.496 34.901 63.39 35.177 63.17L66.568 38.183C67.216 37.667 67.323 36.723 66.808 36.075C66.293 35.427 65.349 35.319 64.7 35.835Z" fill="#0171B3"></path> <path d="M37.131 45.3071C38.481 46.2931 40.073 46.8101 41.714 46.8101C42.116 46.8101 42.522 46.7791 42.927 46.7161C47.173 46.0551 50.091 42.0631 49.432 37.8171C48.771 33.5701 44.777 30.6521 40.533 31.3131C36.286 31.9731 33.368 35.9651 34.029 40.2111C34.348 42.2681 35.449 44.0791 37.131 45.3071ZM40.993 34.2771C41.241 34.2381 41.488 34.2191 41.732 34.2191C44.053 34.2191 46.099 35.9141 46.467 38.2781C46.873 40.8901 45.078 43.3461 42.466 43.7521C41.198 43.9491 39.934 43.6411 38.901 42.8851C37.867 42.1301 37.189 41.0161 36.993 39.7511C36.587 37.1391 38.381 34.6831 40.993 34.2771Z" fill="#0171B3"></path> <path d="M58.2208 52.1362C53.9218 52.1362 50.4238 55.6332 50.4238 59.9312C50.4238 64.2292 53.9218 67.7252 58.2208 67.7252C62.5198 67.7252 66.0168 64.2282 66.0168 59.9312C66.0178 55.6332 62.5198 52.1362 58.2208 52.1362ZM58.2208 64.7252C55.5758 64.7252 53.4238 62.5742 53.4238 59.9312C53.4238 57.2872 55.5758 55.1362 58.2208 55.1362C60.8658 55.1362 63.0168 57.2872 63.0168 59.9312C63.0178 62.5752 60.8658 64.7252 58.2208 64.7252Z" fill="#0171B3"></path> <path d="M88.2829 41.2371C85.3099 39.7561 82.2369 38.2241 81.3989 36.2441C80.5439 34.2231 81.7199 31.0071 82.8569 27.8971C84.4009 23.6731 85.9989 19.3061 83.0999 16.4091C80.2479 13.5561 76.0179 14.5371 71.9259 15.4871C68.9959 16.1671 65.9659 16.8701 63.9059 15.9991C61.8999 15.1491 60.2599 12.5621 58.6739 10.0601C56.4269 6.51507 53.8809 2.49707 49.5209 2.49707C45.1529 2.49707 42.6559 6.60407 40.4529 10.2281C38.8899 12.7991 37.2729 15.4581 35.2679 16.3061C33.2109 17.1761 30.1459 16.4041 27.1809 15.6591C23.0579 14.6221 18.7949 13.5511 15.9389 16.4091C13.0549 19.2911 14.4749 23.6831 15.8489 27.9311C16.8539 31.0371 17.8919 34.2491 17.0309 36.2851C16.1929 38.2701 13.2549 39.7881 10.4139 41.2571C6.48188 43.2901 2.02588 45.5941 2.02588 49.9901C2.02588 54.3721 6.30888 56.7681 10.0879 58.8821C12.7949 60.3961 15.5939 61.9621 16.4379 63.9561C17.3029 66.0011 16.3969 69.1441 15.5219 72.1831C14.3149 76.3711 13.0669 80.7031 15.9389 83.5731C18.8989 86.5321 23.6439 84.0691 28.2329 81.6841C31.5679 79.9521 35.3489 77.9861 37.3149 78.8191C39.2339 79.6311 40.5199 83.5961 41.6549 87.0941C43.3109 92.2011 45.0249 97.4831 49.5219 97.4831C54.0239 97.4831 55.6809 92.1961 57.2829 87.0831C58.3829 83.5741 59.6299 79.5961 61.5469 78.7861C63.5129 77.9551 67.3369 79.9261 70.7099 81.6661C75.3479 84.0591 80.1429 86.5321 83.1009 83.5741C86.0019 80.6741 84.4129 76.3681 82.8769 72.2031C81.7479 69.1411 80.5799 65.9751 81.4329 63.9561C82.2719 61.9731 85.3349 60.3971 88.2969 58.8731C92.5819 56.6681 97.0129 54.3891 97.0129 49.9901C97.0099 45.5861 92.5729 43.3751 88.2829 41.2371ZM86.9219 56.2061C83.4849 57.9741 79.9309 59.8031 78.6679 62.7891C77.3529 65.9011 78.7299 69.6331 80.0609 73.2421C81.3259 76.6721 82.5209 79.9111 80.9779 81.4531C79.5699 82.8621 75.5919 80.8111 72.0839 79.0011C67.9319 76.8591 63.6389 74.6451 60.3769 76.0241C57.1809 77.3751 55.7759 81.8551 54.4189 86.1881C53.1409 90.2671 51.8189 94.4851 49.5209 94.4851C47.2039 94.4851 45.8329 90.2581 44.5069 86.1701C43.1089 81.8601 41.6639 77.4031 38.4829 76.0581C37.7769 75.7591 37.0249 75.6281 36.2379 75.6281C33.3839 75.6281 30.0739 77.3481 26.8489 79.0231C23.3889 80.8221 19.4649 82.8601 18.0589 81.4531C16.4389 79.8341 17.3929 76.5221 18.4039 73.0151C19.4239 69.4741 20.4789 65.8131 19.1999 62.7881C17.9549 59.8471 14.6999 58.0261 11.5519 56.2651C8.19588 54.3881 5.02588 52.6141 5.02588 49.9921C5.02588 47.4221 8.31188 45.7221 11.7919 43.9241C15.1059 42.2101 18.5339 40.4381 19.7939 37.4551C21.0899 34.3911 19.8769 30.6391 18.7029 27.0101C17.5569 23.4661 16.4739 20.1171 18.0599 18.5331C19.7139 16.8771 22.9859 17.7001 26.4499 18.5711C29.8939 19.4381 33.4579 20.3341 36.4369 19.0721C39.3329 17.8481 41.2059 14.7681 43.0169 11.7891C44.9829 8.55507 46.8399 5.50007 49.5209 5.50007C52.2299 5.50007 54.1289 8.49707 56.1399 11.6691C57.9729 14.5601 59.8669 17.5501 62.7379 18.7651C65.6969 20.0161 69.2089 19.2011 72.6049 18.4121C76.0499 17.6131 79.3039 16.8571 80.9799 18.5331C82.5249 20.0771 81.3179 23.3761 80.0409 26.8691C78.7049 30.5251 77.3219 34.3051 78.6379 37.4151C79.9079 40.4161 83.4859 42.2001 86.9469 43.9241C90.5799 45.7351 94.0119 47.4451 94.0119 49.9921C94.0099 52.5581 90.5669 54.3301 86.9219 56.2061Z" fill="#0171B3"></path> </svg> 