<?xml version="1.0" encoding="UTF-8"?> <svg xmlns="http://www.w3.org/2000/svg" width="101" height="101" viewBox="0 0 101 101" fill="none"> <path d="M93.5 53H86V40.5C86 40.1022 85.842 39.7206 85.5607 39.4393C85.2794 39.158 84.8978 39 84.5 39H61V26.5C61 26.1022 60.842 25.7206 60.5607 25.4393C60.2794 25.158 59.8978 25 59.5 25H8.5C8.10218 25 7.72064 25.158 7.43934 25.4393C7.15804 25.7206 7 26.1022 7 26.5V73.5C7 73.8978 7.15804 74.2794 7.43934 74.5607C7.72064 74.842 8.10218 75 8.5 75H19.92C20.1242 76.8744 21.0134 78.6073 22.417 79.8662C23.8205 81.1252 25.6396 81.8215 27.525 81.8215C29.4104 81.8215 31.2295 81.1252 32.633 79.8662C34.0366 78.6073 34.9258 76.8744 35.13 75H68.68C68.8843 76.8769 69.7747 78.6122 71.1801 79.873C72.5855 81.1337 74.407 81.8309 76.295 81.8309C78.183 81.8309 80.0045 81.1337 81.4099 79.873C82.8153 78.6122 83.7057 76.8769 83.91 75H93.5C93.8978 75 94.2794 74.842 94.5607 74.5607C94.842 74.2794 95 73.8978 95 73.5V54.5C95 54.1022 94.842 53.7206 94.5607 53.4393C94.2794 53.158 93.8978 53 93.5 53ZM27.5 78.84C26.5771 78.844 25.6738 78.5738 24.9046 78.0637C24.1354 77.5536 23.535 76.8266 23.1795 75.9749C22.8241 75.1232 22.7295 74.1851 22.9079 73.2795C23.0862 72.374 23.5294 71.5418 24.1813 70.8885C24.8333 70.2352 25.6645 69.7901 26.5696 69.6098C27.4748 69.4295 28.4131 69.5221 29.2656 69.8757C30.1181 70.2294 30.8464 70.8282 31.3581 71.5963C31.8698 72.3643 32.142 73.2671 32.14 74.19C32.1375 75.4139 31.6536 76.5876 30.7929 77.4576C29.9322 78.3277 28.7638 78.8242 27.54 78.84H27.5ZM27.5 66.53C25.858 66.5402 24.2625 67.0772 22.9485 68.0618C21.6344 69.0465 20.671 70.4269 20.2 72H10V28H58V72H34.86C34.3895 70.4228 33.4234 69.0392 32.105 68.0539C30.7866 67.0687 29.1859 66.5344 27.54 66.53H27.5ZM76.29 78.84C75.3679 78.84 74.4666 78.5664 73.7 78.0539C72.9335 77.5415 72.3362 76.8131 71.9838 75.961C71.6314 75.1089 71.5397 74.1714 71.7203 73.2672C71.9009 72.363 72.3457 71.5327 72.9984 70.8813C73.6511 70.23 74.4824 69.787 75.387 69.6083C76.2916 69.4296 77.2289 69.5234 78.0802 69.8776C78.9316 70.2318 79.6587 70.8307 80.1695 71.5983C80.6804 72.366 80.952 73.2679 80.95 74.19C80.9473 75.4242 80.4552 76.6069 79.5816 77.4787C78.708 78.3504 77.5242 78.84 76.29 78.84ZM92 72H83.63C83.1506 70.4338 82.1812 69.0628 80.8644 68.0888C79.5476 67.1147 77.9529 66.589 76.315 66.589C74.6771 66.589 73.0824 67.1147 71.7656 68.0888C70.4488 69.0628 69.4794 70.4338 69 72H61V42H83V54.5C83 54.8978 83.158 55.2794 83.4393 55.5607C83.7206 55.842 84.1022 56 84.5 56H92V72Z" fill="#0171B3"></path> <path d="M16.5 43.0002H47L42 48.0002C41.8526 48.1375 41.7344 48.3031 41.6524 48.4871C41.5705 48.6711 41.5264 48.8698 41.5228 49.0712C41.5193 49.2726 41.5563 49.4726 41.6318 49.6594C41.7072 49.8462 41.8195 50.0158 41.9619 50.1583C42.1044 50.3007 42.274 50.413 42.4608 50.4885C42.6476 50.5639 42.8476 50.6009 43.049 50.5974C43.2505 50.5938 43.4491 50.5498 43.6331 50.4678C43.8171 50.3858 43.9827 50.2676 44.12 50.1202L50.85 43.3902C51.1309 43.109 51.2887 42.7277 51.2887 42.3302C51.2887 41.9327 51.1309 41.5515 50.85 41.2702L44.12 34.5402C43.9782 34.401 43.8103 34.2911 43.626 34.2168C43.4417 34.1424 43.2446 34.1051 43.0459 34.107C42.8471 34.1089 42.6507 34.1498 42.4679 34.2276C42.285 34.3054 42.1192 34.4184 41.98 34.5602C41.8408 34.702 41.7309 34.8699 41.6566 35.0542C41.5822 35.2385 41.5449 35.4356 41.5468 35.6344C41.5486 35.8331 41.5896 36.0295 41.6674 36.2124C41.7452 36.3952 41.8582 36.561 42 36.7002L45.3 40.0002H16.5C16.1022 40.0002 15.7206 40.1582 15.4393 40.4395C15.158 40.7209 15 41.1024 15 41.5002C15 41.898 15.158 42.2796 15.4393 42.5609C15.7206 42.8422 16.1022 43.0002 16.5 43.0002Z" fill="#0171B3"></path> <path d="M49.0001 57.4999C49.0001 57.1021 48.8421 56.7205 48.5607 56.4392C48.2794 56.1579 47.8979 55.9999 47.5001 55.9999H17.1001L22.0001 51.1099C22.1386 50.9694 22.2481 50.8029 22.3224 50.6201C22.3966 50.4373 22.4341 50.2416 22.4327 50.0443C22.4313 49.847 22.3911 49.6518 22.3143 49.4701C22.2375 49.2883 22.1256 49.1234 21.9851 48.9849C21.8446 48.8463 21.6781 48.7368 21.4953 48.6626C21.3125 48.5884 21.1168 48.5509 20.9195 48.5523C20.7222 48.5537 20.527 48.5939 20.3453 48.6707C20.1635 48.7475 19.9986 48.8594 19.8601 48.9999L13.1301 55.7299C12.8492 56.0111 12.6914 56.3924 12.6914 56.7899C12.6914 57.1874 12.8492 57.5686 13.1301 57.8499L19.8601 64.5799C20.1425 64.8637 20.5262 65.0236 20.9266 65.0246C21.3269 65.0255 21.7113 64.8673 21.9951 64.5849C22.2789 64.3024 22.4388 63.9188 22.4398 63.5184C22.4407 63.118 22.2825 62.7337 22.0001 62.4499L18.5401 58.9999H47.5401C47.9309 58.9895 48.3023 58.8268 48.575 58.5466C48.8477 58.2665 49.0002 57.8909 49.0001 57.4999Z" fill="#0171B3"></path> </svg> 