<?xml version="1.0" encoding="UTF-8"?> <svg xmlns="http://www.w3.org/2000/svg" width="101" height="101" viewBox="0 0 101 101" fill="none"> <path d="M88.5 81H12.5C12.1022 81 11.7206 80.842 11.4393 80.5607C11.158 80.2794 11 79.8978 11 79.5C11 79.1022 11.158 78.7206 11.4393 78.4393C11.7206 78.158 12.1022 78 12.5 78H88.5C88.8978 78 89.2794 78.158 89.5607 78.4393C89.842 78.7206 90 79.1022 90 79.5C90 79.8978 89.842 80.2794 89.5607 80.5607C89.2794 80.842 88.8978 81 88.5 81Z" fill="#0171B3"></path> <path d="M89.5 60H75.5C75.1022 60 74.7206 59.842 74.4393 59.5607C74.158 59.2794 74 58.8978 74 58.5C74 58.1022 74.158 57.7206 74.4393 57.4393C74.7206 57.158 75.1022 57 75.5 57H89.5C89.8978 57 90.2794 57.158 90.5607 57.4393C90.842 57.7206 91 58.1022 91 58.5C91 58.8978 90.842 59.2794 90.5607 59.5607C90.2794 59.842 89.8978 60 89.5 60Z" fill="#0171B3"></path> <path d="M67.5 60H54.5C54.1022 60 53.7206 59.842 53.4393 59.5607C53.158 59.2794 53 58.8978 53 58.5C53 58.1022 53.158 57.7206 53.4393 57.4393C53.7206 57.158 54.1022 57 54.5 57H67.5C67.8978 57 68.2794 57.158 68.5607 57.4393C68.842 57.7206 69 58.1022 69 58.5C69 58.8978 68.842 59.2794 68.5607 59.5607C68.2794 59.842 67.8978 60 67.5 60Z" fill="#0171B3"></path> <path d="M46.5 60H33.5C33.1022 60 32.7206 59.842 32.4393 59.5607C32.158 59.2794 32 58.8978 32 58.5C32 58.1022 32.158 57.7206 32.4393 57.4393C32.7206 57.158 33.1022 57 33.5 57H46.5C46.8978 57 47.2794 57.158 47.5607 57.4393C47.842 57.7206 48 58.1022 48 58.5C48 58.8978 47.842 59.2794 47.5607 59.5607C47.2794 59.842 46.8978 60 46.5 60Z" fill="#0171B3"></path> <path d="M25.5 60H12.5C12.1022 60 11.7206 59.842 11.4393 59.5607C11.158 59.2794 11 58.8978 11 58.5C11 58.1022 11.158 57.7206 11.4393 57.4393C11.7206 57.158 12.1022 57 12.5 57H25.5C25.8978 57 26.2794 57.158 26.5607 57.4393C26.842 57.7206 27 58.1022 27 58.5C27 58.8978 26.842 59.2794 26.5607 59.5607C26.2794 59.842 25.8978 60 25.5 60Z" fill="#0171B3"></path> <path d="M50.4998 71.7199C49.4577 71.7199 48.4277 71.4968 47.479 71.0656C46.5304 70.6344 45.685 70.005 44.9998 69.2199C44.4666 68.6132 44.0744 67.8959 43.8514 67.1195C43.6283 66.3432 43.58 65.5271 43.7098 64.7299C44.3998 60.6599 48.8798 49.7299 49.0698 49.2599C49.182 48.9832 49.3742 48.7464 49.6219 48.5796C49.8695 48.4128 50.1612 48.3237 50.4598 48.3237C50.7583 48.3237 51.0501 48.4128 51.2977 48.5796C51.5453 48.7464 51.7376 48.9832 51.8498 49.2599C52.0398 49.7199 56.5198 60.6599 57.2098 64.7299C57.3504 65.5212 57.3148 66.3338 57.1057 67.1099C56.8965 67.8859 56.519 68.6064 55.9998 69.2199C55.3142 70.0045 54.4687 70.6335 53.5201 71.0647C52.5716 71.4959 51.5418 71.7193 50.4998 71.7199ZM50.4998 53.8799C49.1098 57.4599 47.1198 62.8199 46.7098 65.2199C46.656 65.5885 46.6846 65.9644 46.7936 66.3206C46.9025 66.6768 47.0891 67.0044 47.3398 67.2799C47.7322 67.7331 48.2175 68.0965 48.7627 68.3457C49.3079 68.5948 49.9003 68.7237 50.4998 68.7237C51.0992 68.7237 51.6917 68.5948 52.2369 68.3457C52.7821 68.0965 53.2674 67.7331 53.6598 67.2799C53.9105 67.0044 54.0971 66.6768 54.206 66.3206C54.3149 65.9644 54.3436 65.5885 54.2898 65.2199C53.8798 62.8299 51.8898 57.4599 50.4998 53.8899V53.8799Z" fill="#0171B3"></path> <path d="M29.2198 71.7199C28.1862 71.7128 27.1658 71.4863 26.2263 71.0553C25.2868 70.6243 24.4495 69.9987 23.7698 69.2199C23.2366 68.6132 22.8444 67.8959 22.6214 67.1195C22.3983 66.3432 22.35 65.5271 22.4798 64.7299C23.1698 60.6599 27.6498 49.7299 27.8398 49.2599C27.952 48.9832 28.1443 48.7464 28.3919 48.5796C28.6395 48.4128 28.9313 48.3237 29.2298 48.3237C29.5284 48.3237 29.8201 48.4128 30.0677 48.5796C30.3154 48.7464 30.5076 48.9832 30.6198 49.2599C30.8098 49.7199 35.2898 60.6599 35.9798 64.7299C36.1083 65.5279 36.0584 66.3444 35.8336 67.1208C35.6088 67.8971 35.2148 68.614 34.6798 69.2199C33.9986 69.9995 33.1596 70.6255 32.2184 71.0565C31.2771 71.4874 30.255 71.7136 29.2198 71.7199ZM29.2198 53.8799C27.8298 57.4599 25.8398 62.8199 25.4298 65.2199C25.376 65.5885 25.4047 65.9644 25.5136 66.3206C25.6225 66.6768 25.8091 67.0044 26.0598 67.2799C26.4522 67.7331 26.9375 68.0965 27.4827 68.3457C28.0279 68.5948 28.6204 68.7237 29.2198 68.7237C29.8193 68.7237 30.4117 68.5948 30.9569 68.3457C31.5021 68.0965 31.9874 67.7331 32.3798 67.2799C32.6274 67.0047 32.8113 66.6784 32.9184 66.324C33.0256 65.9697 33.0534 65.5962 32.9998 65.2299C32.5998 62.8299 30.6098 57.4599 29.2198 53.8899V53.8799Z" fill="#0171B3"></path> <path d="M71.7599 71.7199C70.7738 71.7166 69.7986 71.5138 68.8929 71.1236C67.9872 70.7335 67.1698 70.1642 66.4899 69.4499C65.9276 68.8648 65.5022 68.1621 65.2445 67.3925C64.9868 66.6229 64.9033 65.8057 64.9999 64.9999C65.5099 60.8999 69.5199 49.7799 69.6899 49.3099C69.7913 49.0309 69.9733 48.7882 70.2127 48.6127C70.4521 48.4371 70.7382 48.3365 71.0348 48.3237C71.3314 48.3108 71.6252 48.3863 71.8789 48.5405C72.1326 48.6947 72.3348 48.9207 72.4599 49.1899C72.6699 49.6499 77.6199 60.3799 78.4599 64.4199C78.6321 65.2156 78.6244 66.0397 78.4376 66.832C78.2508 67.6243 77.8894 68.365 77.3799 68.9999C76.7286 69.8103 75.9117 70.4721 74.9838 70.9412C74.056 71.4103 73.0387 71.6758 71.9999 71.7199H71.7599ZM71.2799 53.8799C69.9999 57.5199 68.2799 62.9999 67.9999 65.3799C67.967 65.7456 68.0144 66.1141 68.1387 66.4596C68.2631 66.805 68.4615 67.1191 68.7199 67.3799C69.139 67.8056 69.641 68.1407 70.1949 68.3643C70.7488 68.588 71.3428 68.6954 71.9399 68.6799C72.5284 68.6472 73.1038 68.4936 73.6303 68.2286C74.1568 67.9637 74.623 67.5931 74.9999 67.1399C75.2377 66.8545 75.4094 66.52 75.5028 66.1604C75.5961 65.8008 75.6088 65.425 75.5399 65.0599C74.9999 62.6799 72.8199 57.3999 71.2699 53.8799H71.2799Z" fill="#0171B3"></path> <path d="M68.91 43H11.14C10.838 42.9982 10.5436 42.9053 10.2953 42.7334C10.0469 42.5616 9.85627 42.3187 9.74822 42.0367C9.64016 41.7547 9.61976 41.4466 9.68967 41.1528C9.75958 40.859 9.91655 40.5931 10.14 40.39L31.14 21.39C31.4139 21.1411 31.77 21.0022 32.14 21H89.86C90.1621 21.0018 90.4565 21.0947 90.7048 21.2666C90.9532 21.4384 91.1438 21.6813 91.2519 21.9633C91.3599 22.2453 91.3803 22.5534 91.3104 22.8472C91.2405 23.141 91.0835 23.4069 90.86 23.61L69.86 42.61C69.5991 42.8477 69.2627 42.9858 68.91 43ZM15 40H68.3L86 24H32.67L15 40Z" fill="#0171B3"></path> </svg> 