<?xml version="1.0" encoding="UTF-8"?> <svg xmlns="http://www.w3.org/2000/svg" width="480" height="480" viewBox="0 0 480 480" fill="none"> <path d="M445.755 151.947C445.659 151.846 445.56 151.747 445.459 151.651L359.586 75.3279C358.802 74.6136 357.888 74.0596 356.892 73.6953L294.773 51.4923C290.535 49.9536 285.853 52.1423 284.314 56.3798C284.037 57.1441 283.875 57.945 283.835 58.7572C283.835 60.5531 281.141 101.939 239.755 102.592C198.124 101.939 195.512 60.5531 195.431 58.7572C195.19 54.2554 191.345 50.8015 186.843 51.0423C186.07 51.0841 185.306 51.2352 184.574 51.4923L122.536 73.9402C121.54 74.3044 120.626 74.8585 119.843 75.5728L34.5406 151.651C31.2724 154.756 31.1397 159.923 34.2447 163.191C34.3406 163.292 34.4396 163.391 34.5406 163.487L102.456 232.137V419.883C102.456 424.39 106.111 428.045 110.619 428.045H369.381C373.889 428.045 377.544 424.39 377.544 419.883V232.137L445.459 163.487C448.728 160.382 448.86 155.216 445.755 151.947ZM377.299 208.872V170.997C377.299 166.489 373.645 162.834 369.137 162.834C364.629 162.834 360.974 166.489 360.974 170.997V411.312H118.455V170.997C118.455 166.489 114.8 162.834 110.292 162.834C105.784 162.834 102.129 166.489 102.129 170.997V208.954L51.9275 158.099L129.638 88.5517L180.738 70.1036C187.068 102.72 218.641 124.031 251.258 117.7C275.345 113.025 294.179 94.1912 298.854 70.1036L349.954 88.5517L427.419 158.099L377.299 208.872Z" fill="#0171B3"></path> </svg> 